<?xml version="1.0" encoding="UTF-8"?>
<svg width="40" height="40" viewBox="0 0 40 40" fill="none" xmlns="http://www.w3.org/2000/svg">
    <!-- Cat Face Base -->
    <circle cx="20" cy="20" r="18" fill="#F47B20"/>
    
    <!-- Cat Ears -->
    <path d="M8 12 Q12 6 16 12" stroke="#2C3E50" stroke-width="2" fill="none"/>
    <path d="M24 12 Q28 6 32 12" stroke="#2C3E50" stroke-width="2" fill="none"/>
    
    <!-- Cat Eyes -->
    <circle cx="14" cy="18" r="2" fill="#2C3E50"/>
    <circle cx="26" cy="18" r="2" fill="#2C3E50"/>
    
    <!-- Cat Nose -->
    <path d="M18 22 Q20 24 22 22" stroke="#2C3E50" stroke-width="2" fill="none"/>
    
    <!-- Cat Whiskers -->
    <path d="M16 20 Q10 18 10 18" stroke="#2C3E50" stroke-width="1" fill="none"/>
    <path d="M16 22 Q10 22 10 22" stroke="#2C3E50" stroke-width="1" fill="none"/>
    <path d="M16 24 Q10 26 10 26" stroke="#2C3E50" stroke-width="1" fill="none"/>
    <path d="M24 20 Q30 18 30 18" stroke="#2C3E50" stroke-width="1" fill="none"/>
    <path d="M24 22 Q30 22 30 22" stroke="#2C3E50" stroke-width="1" fill="none"/>
    <path d="M24 24 Q30 26 30 26" stroke="#2C3E50" stroke-width="1" fill="none"/>
    
    <!-- Bitcoin Symbol -->
    <path d="M16 28 L24 28 L24 30 L16 30 Z" fill="#2C3E50"/>
    <path d="M18 26 L22 26 L22 28 L18 28 Z" fill="#2C3E50"/>
    
    <!-- Playful Details -->
    <circle cx="14" cy="18" r="0.5" fill="white"/>
    <circle cx="26" cy="18" r="0.5" fill="white"/>
    <path d="M18 24 Q20 25 22 24" stroke="#2C3E50" stroke-width="1" fill="none"/>
</svg> 